<svg width="900" height="450" viewBox="0 0 900 450" fill="none" xmlns="http://www.w3.org/2000/svg">
<path d="M251.681 57.2013C243.563 58.0745 234.474 60.4559 227.503 63.5517C224.679 64.8218 213.561 70.4578 202.796 76.0937C182.059 86.8894 144.998 106.258 112.26 123.245C73.2573 143.567 56.1385 152.695 51.7264 155.632C41.9316 162.142 34.9606 171.667 32.8428 181.431C31.2544 188.813 32.0486 216.358 34.0782 223.502C35.6665 228.979 35.6665 229.376 34.1664 233.028C33.0193 235.965 32.4898 240.331 32.2251 251.206C31.6957 267.399 32.4016 272.003 36.5489 279.386C41.4904 288.276 45.4613 291.054 79.1695 309.153C96.2001 318.202 110.142 325.664 110.23 325.743C110.319 325.823 109.613 327.807 108.73 330.189C107.583 333.046 107.054 336.777 106.966 340.905C106.966 346.303 107.318 347.97 109.436 352.018C113.76 360.115 121.967 365.354 132.114 366.386C141.468 367.418 154.086 362.02 158.057 355.273C158.763 354.161 159.646 353.209 160.087 353.209C160.616 353.209 173.941 360.115 189.736 368.45C235.798 392.819 236.769 393.216 262.27 393.216C277.536 393.216 279.124 393.058 286.537 391.073C296.861 388.295 301.008 386.31 330.569 370.752C344.07 363.608 355.806 357.654 356.6 357.495C357.483 357.257 358.895 358.369 360.395 360.353C365.954 367.577 376.366 371.943 386.602 371.307C397.015 370.593 405.927 365.036 410.339 356.384C413.339 350.589 413.516 340.826 410.692 333.761C409.28 330.109 409.104 328.76 409.898 328.125C410.516 327.569 421.105 321.933 433.458 315.503C473.255 294.706 477.05 292.642 481.285 288.832C486.05 284.545 489.315 279.068 491.433 272.003C493.463 265.256 493.551 236.124 491.521 228.821C490.374 224.613 490.374 223.264 491.433 218.898C493.286 211.119 493.374 185.797 491.433 179.605C489.227 172.143 485.874 166.904 479.873 161.268C474.138 155.87 472.108 154.68 444.047 139.915C390.22 111.577 366.483 99.1139 346.982 88.8739C335.069 82.6029 319.186 74.268 311.685 70.299C297.479 62.8373 290.507 60.1384 280.889 58.3126C272.859 56.8838 259.535 56.3281 251.681 57.2013ZM280.801 72.2835C290.507 74.5061 282.566 70.5371 379.19 121.42C401.074 132.93 427.987 147.059 439.194 152.933C450.313 158.808 461.343 164.84 463.549 166.349C478.991 176.509 481.638 190.083 470.343 201.196C467.873 203.657 464.255 206.674 462.225 207.864C458.519 210.166 428.164 225.963 385.808 247.634C357.218 262.24 323.333 279.782 309.038 287.324C286.095 299.469 278.154 301.929 262.27 301.929C244.446 301.929 240.033 300.262 197.589 278.036C169.176 263.192 130.085 242.871 101.23 227.947C69.7277 211.754 62.5801 207.706 57.0209 203.022C47.6673 195.084 45.4613 186.591 50.4911 177.462C55.3443 168.651 57.9033 167.142 126.379 131.58C143.586 122.61 170.588 108.56 186.383 100.305C239.592 72.601 240.828 72.0453 253.27 70.6165C260.241 69.7433 272.947 70.5371 280.801 72.2835ZM78.7283 257C93.0234 264.621 112.348 274.861 121.525 279.782C130.791 284.704 153.733 296.849 172.617 306.692C212.149 327.49 210.208 326.458 210.208 327.093C210.208 328.363 202.354 330.427 197.678 330.347C190.795 330.347 184.618 327.252 179.059 321.06C173.588 314.868 168.999 312.408 162.911 312.408C156.998 312.408 150.733 315.742 148.174 320.187C146.498 323.045 146.409 323.838 147.292 330.982C148.351 339.714 147.645 344.953 144.909 348.446C143.056 350.827 137.497 353.209 133.791 353.209C130.438 353.209 125.143 350.272 123.29 347.414C120.996 343.921 121.172 336.618 123.731 330.586C129.291 317.329 129.291 317.409 128.32 312.566C127.79 310.106 126.202 305.66 124.79 302.644C122.937 298.913 121.967 295.262 121.525 290.658C120.819 283.116 119.055 280.497 112.789 277.639C109.525 276.131 108.289 276.052 98.9355 276.449C83.1403 277.242 74.228 274.385 71.0513 267.637C69.9924 265.415 69.9924 264.224 70.8748 260.969C71.4042 258.747 71.5807 256.762 71.1395 256.445C70.6983 256.127 66.9922 255.016 62.8448 253.984C49.9616 250.809 47.8438 249.221 47.8438 242.633V240.331L50.3146 241.76C51.6382 242.553 64.4332 249.459 78.7283 257ZM477.05 243.426C476.079 246.919 475.02 248.586 471.137 252.158L467.52 255.572L469.461 258.985C472.991 265.335 471.755 269.622 465.49 273.115C461.254 275.496 453.754 275.496 444.93 273.115C429.046 268.749 419.428 272.876 410.074 287.959C407.692 291.769 403.103 298.675 399.838 303.358C390.926 316.297 390.132 322.092 395.515 334.475C398.78 341.937 399.221 347.89 396.662 351.859C391.191 360.194 378.219 360.115 371.954 351.701C370.101 349.319 369.925 348.049 369.925 339.952C369.925 329.077 369.042 327.172 362.512 324.235C358.983 322.648 356.777 322.251 351.482 322.251C340.276 322.33 337.099 323.918 321.657 336.857C310.538 346.144 307.097 347.494 298.008 346.462C293.243 345.985 285.301 342.096 284.595 340.032C284.419 339.556 287.243 338.206 290.86 337.015C294.39 335.825 306.656 330.03 317.951 324.076C329.334 318.202 348.747 308.042 361.101 301.691C417.31 272.559 433.547 264.065 454.195 253.031C466.284 246.602 476.52 241.283 476.961 241.283C477.314 241.283 477.314 242.236 477.05 243.426ZM232.709 336.698C240.033 338.92 249.475 340.429 259.623 340.984C267.741 341.54 268.271 341.619 269.594 343.683C270.388 344.874 272.859 347.652 275.065 349.875L279.124 353.923L276.654 354.558C275.33 354.876 269.594 355.114 264.035 355.114C256.27 355.114 252.123 354.717 246.387 353.288C237.827 351.224 225.209 346.7 218.326 343.128L213.738 340.746L219.208 337.492C222.297 335.666 225.385 334.396 226.091 334.634C226.797 334.872 229.797 335.825 232.709 336.698Z" fill="black"/>
<path d="M316.097 113.96C323.598 117.77 346.629 129.439 367.277 139.917C440.341 177.146 444.047 178.972 444.047 178.258C444.047 177.622 426.222 166.192 414.045 159.048C386.514 142.933 337.363 119.199 314.068 110.864C308.42 108.8 303.479 107.133 303.126 107.133C302.773 107.133 308.597 110.229 316.097 113.96Z" fill="black"/>
<path d="M197.853 117.373C168.557 127.216 107.494 158.016 83.4924 175.082C74.933 181.194 71.0504 183.1 161.233 137.932C178.264 129.439 195.471 120.786 199.618 118.802C208.089 114.595 207.56 114.119 197.853 117.373Z" fill="black"/>
<path d="M92.8452 204.293C92.8452 204.452 98.9339 208.183 106.346 212.469C142.525 233.743 232.266 280.577 232.266 278.196C232.266 277.402 181.792 247.793 165.644 239.061C133.613 221.836 92.8452 202.388 92.8452 204.293Z" fill="black"/>
<path d="M411.22 213.739C382.542 226.837 356.158 240.808 329.774 256.604C317.684 263.907 297.565 276.926 297.565 277.481C297.565 278.91 342.833 255.175 397.719 225.011C418.191 213.819 432.575 205.563 432.575 205.087C432.575 204.134 429.133 205.563 411.22 213.739Z" fill="black"/>
<path d="M579.072 247.472C579.136 247.856 579.168 248.24 579.168 248.624C579.232 248.944 579.264 249.328 579.264 249.776C579.264 250.544 579.04 251.248 578.592 251.888C578.4 252.208 578.144 252.528 577.824 252.848C577.504 253.104 577.12 253.328 576.672 253.52C575.072 254.416 573.376 254.736 571.584 254.48C570.688 254.224 569.888 253.808 569.184 253.232C569.056 253.104 568.96 253.04 568.896 253.04C568.832 252.976 568.768 252.88 568.704 252.752C568.64 252.688 568.576 252.624 568.512 252.56C568.448 252.432 568.352 252.336 568.224 252.272C567.904 251.952 567.648 251.664 567.456 251.408C567.264 251.088 567.072 250.768 566.88 250.448C566.752 250.128 566.592 249.84 566.4 249.584C566.272 249.264 566.112 248.944 565.92 248.624C565.792 248.368 565.664 248.144 565.536 247.952C565.408 247.696 565.312 247.44 565.248 247.184C564.992 246.608 564.832 246.096 564.768 245.648L562.752 240.944C558.336 240.944 553.92 240.976 549.504 241.04C545.152 241.04 540.768 241.008 536.352 240.944L534.336 245.648C534.208 245.904 534.112 246.16 534.048 246.416C534.048 246.672 533.984 246.928 533.856 247.184C533.728 247.44 533.6 247.696 533.472 247.952C533.408 248.144 533.312 248.368 533.184 248.624C532.992 248.944 532.8 249.264 532.608 249.584C532.48 249.84 532.32 250.128 532.128 250.448C532 250.768 531.84 251.088 531.648 251.408C531.456 251.664 531.2 251.952 530.88 252.272C530.752 252.336 530.656 252.432 530.592 252.56C530.528 252.624 530.464 252.688 530.4 252.752C530.336 252.88 530.272 252.976 530.208 253.04C530.144 253.04 530.048 253.104 529.92 253.232C529.216 253.808 528.416 254.224 527.52 254.48C525.728 254.736 524.032 254.416 522.432 253.52C521.984 253.328 521.6 253.104 521.28 252.848C520.96 252.528 520.704 252.208 520.512 251.888C520.064 251.248 519.84 250.544 519.84 249.776C519.84 249.328 519.84 248.944 519.84 248.624C519.904 248.24 519.968 247.856 520.032 247.472C520.16 246.896 520.32 246.32 520.512 245.744C520.704 245.168 520.8 244.88 520.8 244.88L540.768 195.728L541.344 194.192C541.472 193.808 541.632 193.456 541.824 193.136C542.016 192.816 542.176 192.432 542.304 191.984C542.624 191.152 542.976 190.416 543.36 189.776C543.552 189.392 543.776 189.04 544.032 188.72C544.288 188.4 544.544 188.08 544.8 187.76C545.184 187.248 545.728 186.832 546.432 186.512C547.328 186.192 548.352 186.032 549.504 186.032C550.72 186.032 551.776 186.192 552.672 186.512C553.376 186.832 553.92 187.248 554.304 187.76C554.752 188.336 555.232 189.008 555.744 189.776C556.128 190.416 556.48 191.152 556.8 191.984C556.928 192.432 557.088 192.816 557.28 193.136C557.472 193.456 557.632 193.808 557.76 194.192L558.336 195.728L578.304 244.88C578.304 244.88 578.4 245.168 578.592 245.744C578.784 246.32 578.944 246.896 579.072 247.472ZM556.32 223.952C555.488 222.096 554.624 220.176 553.728 218.192C552.896 216.208 552 214.192 551.04 212.144C550.784 211.568 550.528 210.992 550.272 210.416C550.016 209.776 549.76 209.168 549.504 208.592C549.312 209.168 549.088 209.776 548.832 210.416C548.576 210.992 548.32 211.568 548.064 212.144C547.104 214.192 546.176 216.208 545.28 218.192C544.448 220.176 543.616 222.096 542.784 223.952L541.056 228.176H558.048L556.32 223.952ZM636.693 226.064C637.013 226.96 637.237 227.984 637.365 229.136C637.557 230.224 637.653 231.344 637.653 232.496C637.653 233.648 637.557 234.8 637.365 235.952C637.237 237.04 637.045 238 636.789 238.832C635.765 242.416 633.717 245.424 630.645 247.856C627.573 250.224 624.053 251.952 620.085 253.04C616.181 254.128 612.117 254.512 607.893 254.192C603.733 253.872 600.021 252.816 596.757 251.024C594.709 249.872 592.949 248.464 591.477 246.8C590.005 245.136 588.757 243.28 587.733 241.232C587.349 240.528 587.093 239.728 586.965 238.832C586.901 237.872 586.997 236.976 587.253 236.144C587.509 235.248 587.925 234.48 588.501 233.84C589.077 233.136 589.877 232.656 590.901 232.4C591.541 232.272 592.245 232.208 593.013 232.208C593.845 232.208 594.645 232.336 595.413 232.592C596.181 232.784 596.885 233.136 597.525 233.648C598.165 234.096 598.677 234.736 599.061 235.568C599.765 236.912 600.757 238.16 602.037 239.312C603.381 240.4 604.789 241.296 606.261 242C608.373 242.704 610.485 242.992 612.597 242.864C614.773 242.736 616.725 242.256 618.453 241.424C620.245 240.592 621.685 239.472 622.773 238.064C623.861 236.592 624.405 234.928 624.405 233.072C624.405 231.536 624.181 230.288 623.733 229.328C623.285 228.304 622.645 227.472 621.813 226.832C621.045 226.128 620.085 225.552 618.933 225.104C617.845 224.656 616.629 224.272 615.285 223.952C613.749 223.632 612.181 223.408 610.581 223.28C609.045 223.152 607.477 222.992 605.877 222.8C604.277 222.608 602.709 222.352 601.173 222.032C599.637 221.712 598.133 221.232 596.661 220.592C593.717 219.376 591.477 217.52 589.941 215.024C588.405 212.528 587.477 209.84 587.157 206.96C586.901 204.08 587.253 201.232 588.213 198.416C589.173 195.536 590.709 193.072 592.821 191.024C594.869 189.168 597.301 187.856 600.117 187.088C602.997 186.256 606.165 185.776 609.621 185.648C611.541 185.584 613.461 185.648 615.381 185.84C617.365 186.032 619.253 186.352 621.045 186.8C622.901 187.248 624.597 187.824 626.133 188.528C627.733 189.232 629.109 190.064 630.261 191.024C631.093 191.664 631.925 192.528 632.757 193.616C633.589 194.64 634.229 195.76 634.677 196.976C635.125 198.128 635.253 199.248 635.061 200.336C634.933 201.424 634.261 202.352 633.045 203.12C632.021 203.76 631.029 204.048 630.069 203.984C629.173 203.856 628.309 203.568 627.477 203.12C626.645 202.608 625.845 202.032 625.077 201.392C624.309 200.752 623.605 200.176 622.965 199.664C621.237 198.384 619.093 197.52 616.533 197.072C613.973 196.624 611.573 196.528 609.333 196.784C607.925 196.976 606.613 197.296 605.397 197.744C604.181 198.192 603.125 198.8 602.229 199.568C601.397 200.336 600.725 201.296 600.213 202.448C599.765 203.536 599.605 204.784 599.733 206.192C599.797 207.216 600.085 208.08 600.597 208.784C601.173 209.488 601.845 210.064 602.613 210.512C603.445 210.96 604.341 211.312 605.301 211.568C606.261 211.824 607.221 212.016 608.181 212.144C611.061 212.528 613.941 212.816 616.821 213.008C619.701 213.2 622.517 213.84 625.269 214.928C628.085 216.016 630.485 217.488 632.469 219.344C634.453 221.2 635.861 223.44 636.693 226.064ZM696.059 190.736C696.123 191.184 696.155 191.6 696.155 191.984C696.155 192.368 696.155 192.752 696.155 193.136V197.072L695.579 246.896V247.856C695.579 248.24 695.483 248.816 695.291 249.584C695.227 249.904 695.131 250.256 695.003 250.64C694.875 250.96 694.747 251.312 694.619 251.696C694.299 252.464 693.851 253.04 693.275 253.424C692.763 253.936 691.931 254.288 690.779 254.48C688.987 254.864 687.355 254.704 685.883 254C685.051 253.488 684.475 252.848 684.155 252.08C684.027 251.952 683.899 251.76 683.771 251.504C683.771 251.376 683.707 251.184 683.579 250.928C683.451 250.608 683.355 250.288 683.291 249.968C683.227 249.584 683.163 249.2 683.099 248.816C683.099 248.496 683.067 248.176 683.003 247.856C683.003 247.536 682.971 247.216 682.907 246.896C682.779 246.576 682.715 246.32 682.715 246.128C682.715 245.872 682.715 245.584 682.715 245.264C682.843 245.008 682.907 244.528 682.907 243.824L683.003 236.24L683.099 224.144H677.915L658.427 224.24L658.235 246.896V247.856C658.235 248.24 658.139 248.816 657.947 249.584C657.883 249.904 657.787 250.256 657.659 250.64C657.531 250.96 657.403 251.312 657.275 251.696C656.955 252.464 656.507 253.04 655.931 253.424C655.419 253.936 654.587 254.288 653.435 254.48C651.643 254.864 650.011 254.704 648.539 254C647.899 253.616 647.291 252.976 646.715 252.08C646.587 251.824 646.523 251.632 646.523 251.504L646.235 250.928C646.107 250.608 646.011 250.288 645.947 249.968C645.883 249.584 645.819 249.2 645.755 248.816C645.755 248.496 645.723 248.176 645.659 247.856C645.595 247.536 645.531 247.216 645.467 246.896C645.403 246.384 645.403 245.84 645.467 245.264V243.824L645.563 236.24L645.755 222.128C645.819 220.08 645.851 217.968 645.851 215.792C645.851 213.616 645.851 211.376 645.851 209.072C645.787 206.768 645.755 204.72 645.755 202.928C645.819 201.136 645.915 199.12 646.043 196.88V196.496C646.107 195.856 646.139 195.216 646.139 194.576C646.139 193.872 646.171 193.168 646.235 192.464C646.299 191.824 646.395 191.216 646.523 190.64C646.715 190 646.971 189.36 647.291 188.72C647.483 188.208 647.739 187.792 648.059 187.472C648.379 187.088 648.763 186.736 649.211 186.416C650.235 185.904 651.259 185.648 652.283 185.648C652.795 185.648 653.243 185.68 653.627 185.744C654.011 185.744 654.395 185.776 654.779 185.84C655.547 185.904 656.283 186.288 656.987 186.992C657.499 187.44 657.851 187.952 658.043 188.528C658.363 189.36 658.555 190.096 658.619 190.736C658.683 191.184 658.715 191.6 658.715 191.984C658.715 192.368 658.715 192.752 658.715 193.136V197.072L658.523 212.912C659.035 212.912 659.611 212.912 660.251 212.912C660.955 212.912 661.755 212.88 662.651 212.816C665.979 212.816 669.275 212.848 672.539 212.912C675.867 212.976 679.355 213.008 683.003 213.008H683.099C683.099 210.128 683.099 207.376 683.099 204.752C683.163 202.128 683.259 199.376 683.387 196.496C683.387 195.856 683.387 195.216 683.387 194.576C683.451 193.872 683.515 193.168 683.579 192.464C683.643 191.824 683.739 191.216 683.867 190.64C684.059 190 684.315 189.36 684.635 188.72C684.763 188.208 684.987 187.792 685.307 187.472C685.691 187.088 686.139 186.736 686.651 186.416C687.547 185.904 688.539 185.648 689.627 185.648C690.139 185.648 690.587 185.68 690.971 185.744C691.419 185.744 691.803 185.776 692.123 185.84C693.019 185.968 693.755 186.352 694.331 186.992C694.843 187.312 695.195 187.824 695.387 188.528C695.515 188.912 695.611 189.296 695.675 189.68C695.803 190 695.931 190.352 696.059 190.736ZM745.439 192.08C747.871 194.32 749.663 197.008 750.815 200.144C751.967 203.216 752.415 206.288 752.159 209.36C751.903 212.304 750.975 215.024 749.375 217.52C747.775 219.952 745.343 221.808 742.079 223.088C739.519 224.176 736.991 224.944 734.495 225.392C731.999 225.84 729.247 226.192 726.239 226.448C724.895 226.576 723.743 226.672 722.783 226.736C721.887 226.736 720.831 226.768 719.615 226.832C719.359 226.832 718.911 226.832 718.271 226.832C717.695 226.832 717.279 226.864 717.023 226.928V246.8C716.831 248.016 716.575 249.264 716.255 250.544C715.999 251.824 715.263 252.816 714.047 253.52C713.343 253.904 712.479 254.128 711.455 254.192C710.431 254.256 709.503 254.224 708.671 254.096C707.775 253.968 707.007 253.744 706.367 253.424C705.791 253.04 705.311 252.4 704.927 251.504C704.671 250.928 704.415 250.288 704.159 249.584C703.967 248.816 703.871 247.888 703.871 246.8V193.712C703.871 193.264 703.903 192.848 703.967 192.464C704.031 192.08 704.095 191.696 704.159 191.312C704.287 190.992 704.383 190.64 704.447 190.256C704.511 189.872 704.607 189.52 704.735 189.2C704.863 188.88 704.991 188.592 705.119 188.336C705.311 188.08 705.535 187.856 705.791 187.664C706.111 187.344 706.591 187.056 707.231 186.8C707.935 186.544 708.959 186.416 710.303 186.416H710.495C712.479 186.288 714.687 186.192 717.119 186.128C719.551 186 721.567 186.032 723.167 186.224C724.063 186.352 724.895 186.448 725.663 186.512C726.431 186.512 727.167 186.544 727.871 186.608C728.639 186.672 729.407 186.736 730.175 186.8C730.943 186.864 731.711 186.96 732.479 187.088C733.119 187.216 733.695 187.312 734.207 187.376C734.783 187.44 735.359 187.536 735.935 187.664C736.447 187.792 736.991 187.92 737.567 188.048C738.207 188.176 738.783 188.4 739.295 188.72C740.639 189.104 741.759 189.584 742.655 190.16C743.551 190.736 744.479 191.376 745.439 192.08ZM739.679 207.92C739.743 206.384 739.423 205.04 738.719 203.888C738.079 202.736 737.151 201.776 735.935 201.008C734.719 200.24 733.343 199.632 731.807 199.184C730.271 198.736 728.735 198.416 727.199 198.224C726.815 198.224 726.271 198.224 725.567 198.224C724.927 198.16 724.223 198.128 723.455 198.128C722.687 198.064 721.951 198.032 721.247 198.032C720.607 197.968 720.095 197.936 719.711 197.936C719.391 197.872 719.007 197.84 718.559 197.84C718.111 197.84 717.599 197.84 717.023 197.84C717.087 199.824 717.119 201.744 717.119 203.6C717.119 205.392 717.119 207.344 717.119 209.456C717.055 210.608 717.023 211.76 717.023 212.912C717.023 214.064 717.023 215.184 717.023 216.272L722.975 216.176C724.511 216.176 726.207 216.08 728.063 215.888C729.919 215.696 731.679 215.312 733.343 214.736C735.007 214.16 736.415 213.328 737.567 212.24C738.783 211.152 739.487 209.712 739.679 207.92ZM773.18 197.552L772.988 212.624H776.828C779.452 212.56 781.788 212.528 783.836 212.528C785.884 212.528 788.156 212.56 790.652 212.624H791.132C791.9 212.624 792.636 212.656 793.34 212.72C794.108 212.72 794.844 212.72 795.548 212.72C796.316 212.784 797.052 212.912 797.756 213.104C798.46 213.232 799.164 213.392 799.868 213.584C800.956 213.968 801.852 214.544 802.556 215.312C803.196 216.144 803.516 217.072 803.516 218.096C803.516 218.416 803.516 218.8 803.516 219.248C803.516 219.632 803.452 219.984 803.324 220.304C803.196 221.008 802.78 221.648 802.076 222.224C801.756 222.672 801.148 222.992 800.252 223.184C799.42 223.44 798.588 223.6 797.756 223.664C796.86 223.856 795.964 223.952 795.068 223.952H790.556L772.796 224.048L772.604 242.864L791.708 243.056H796.22C796.732 243.056 797.212 243.056 797.66 243.056C798.108 243.056 798.524 243.088 798.908 243.152C799.42 243.28 799.868 243.376 800.252 243.44C800.7 243.44 801.116 243.504 801.5 243.632C802.268 243.888 802.908 244.24 803.42 244.688C804.06 245.328 804.476 246 804.667 246.704C804.732 247.024 804.764 247.376 804.764 247.76C804.828 248.08 804.828 248.432 804.764 248.816C804.764 249.84 804.444 250.768 803.804 251.6C803.036 252.496 802.14 253.072 801.116 253.328C799.772 253.904 798.3 254.192 796.7 254.192C795.996 254.256 795.26 254.288 794.492 254.288C793.724 254.288 792.988 254.32 792.284 254.384H791.708C786.716 254.512 781.532 254.512 776.156 254.384C774.876 254.384 773.852 254.352 773.084 254.288C772.316 254.288 771.612 254.288 770.972 254.288C770.396 254.288 769.788 254.288 769.148 254.288C768.508 254.288 767.676 254.288 766.652 254.288C765.18 254.416 763.964 254.16 763.004 253.52C762.3 253.072 761.756 252.464 761.372 251.696C761.18 251.504 761.084 251.312 761.084 251.12C761.02 250.992 760.956 250.896 760.892 250.832C760.828 250.768 760.764 250.672 760.7 250.544C760.572 250.224 760.476 249.904 760.412 249.584C760.348 249.2 760.316 248.848 760.316 248.528C760.252 248.208 760.188 247.888 760.124 247.568C760.124 247.248 760.092 246.928 760.028 246.608V245.072C760.028 244.816 760.028 244.56 760.028 244.304C760.092 244.048 760.124 243.792 760.124 243.536V236.048L760.316 222.224V209.456C760.316 207.152 760.316 205.104 760.316 203.312C760.38 201.52 760.444 199.568 760.508 197.456V196.976C760.572 196.272 760.604 195.632 760.604 195.056C760.668 194.416 760.7 193.776 760.7 193.136C760.764 191.856 761.116 190.608 761.756 189.392C762.012 188.88 762.268 188.432 762.523 188.048C762.844 187.664 763.26 187.344 763.772 187.088C764.732 186.512 765.724 186.224 766.748 186.224C767.26 186.224 767.644 186.256 767.9 186.32V186.224C769.052 186.224 769.98 186.224 770.684 186.224C771.388 186.224 772.06 186.224 772.7 186.224C773.404 186.224 774.14 186.224 774.908 186.224C775.676 186.16 776.732 186.128 778.076 186.128C780.636 186.064 783.068 186.032 785.372 186.032C787.676 186.032 790.044 186.064 792.476 186.128H792.86C793.564 186.192 794.3 186.224 795.068 186.224C795.836 186.224 796.572 186.256 797.276 186.32C797.98 186.32 798.684 186.416 799.388 186.608C800.092 186.736 800.796 186.928 801.5 187.184C802.588 187.504 803.484 188.048 804.188 188.816C804.764 189.712 805.052 190.608 805.052 191.504C805.052 191.888 805.052 192.272 805.052 192.656C805.052 192.976 804.988 193.296 804.86 193.616C804.796 194.256 804.412 194.928 803.708 195.632C803.452 195.76 803.164 195.92 802.844 196.112C802.588 196.304 802.268 196.464 801.884 196.592C801.5 196.72 801.084 196.816 800.636 196.88C800.252 196.88 799.868 196.912 799.484 196.976C798.972 197.104 798.492 197.168 798.044 197.168C797.66 197.168 797.212 197.168 796.7 197.168H792.38L773.18 197.264V197.552ZM859.563 200.144C858.667 201.488 857.739 202.8 856.779 204.08C855.819 205.36 854.891 206.64 853.995 207.92C849.963 213.68 845.931 219.408 841.899 225.104C837.931 230.8 833.963 236.56 829.995 242.384C830.955 242.384 831.691 242.384 832.203 242.384C832.715 242.384 833.131 242.384 833.451 242.384C833.835 242.384 834.251 242.384 834.699 242.384C835.147 242.384 835.819 242.416 836.715 242.48C837.611 242.48 838.827 242.48 840.363 242.48C841.963 242.48 844.075 242.48 846.699 242.48C848.363 242.48 849.995 242.48 851.595 242.48C853.259 242.48 854.923 242.544 856.587 242.672C856.907 242.736 857.259 242.8 857.643 242.864C858.027 242.864 858.379 242.928 858.699 243.056L859.275 243.344C859.275 243.344 859.467 243.408 859.851 243.536C860.619 243.984 861.259 244.496 861.771 245.072C862.667 246.352 862.923 247.792 862.539 249.392C862.475 249.84 862.315 250.256 862.059 250.64C861.867 250.96 861.643 251.248 861.387 251.504C860.875 252.016 860.267 252.368 859.563 252.56C858.859 252.944 858.123 253.168 857.355 253.232C857.035 253.296 856.715 253.36 856.395 253.424C856.139 253.424 855.851 253.424 855.531 253.424H820.683C820.299 253.424 819.915 253.424 819.531 253.424C819.147 253.424 818.763 253.392 818.379 253.328C818.187 253.264 817.995 253.232 817.803 253.232C817.675 253.232 817.547 253.2 817.419 253.136C817.163 253.072 816.907 253.04 816.651 253.04C816.459 252.976 816.203 252.912 815.883 252.848C815.179 252.464 814.635 252.112 814.251 251.792C813.483 251.216 813.067 250.608 813.003 249.968V249.872C812.875 249.552 812.779 249.264 812.715 249.008C812.715 248.752 812.747 248.432 812.811 248.048C812.811 247.984 812.779 247.952 812.715 247.952C812.715 247.888 812.715 247.792 812.715 247.664C812.715 247.28 812.779 246.928 812.907 246.608C813.035 246.224 813.163 245.84 813.291 245.456C813.419 245.264 813.515 245.072 813.579 244.88C813.707 244.624 813.867 244.4 814.059 244.208C814.187 243.888 814.347 243.568 814.539 243.248C814.795 242.928 814.987 242.608 815.115 242.288C815.243 242.032 815.371 241.776 815.499 241.52C815.691 241.2 815.851 240.944 815.979 240.752C816.235 240.496 816.427 240.272 816.555 240.08C816.747 239.824 816.907 239.568 817.035 239.312L822.027 232.304L830.955 219.344C832.363 217.488 833.739 215.568 835.083 213.584C836.491 211.536 837.931 209.424 839.403 207.248C840.491 205.584 841.483 204.144 842.379 202.928C843.275 201.648 844.235 200.272 845.259 198.8C843.019 198.8 840.907 198.8 838.923 198.8C837.003 198.8 835.083 198.8 833.163 198.8C831.243 198.736 829.227 198.704 827.115 198.704C825.067 198.64 822.795 198.576 820.299 198.512C819.403 198.448 818.347 198.32 817.131 198.128C815.979 197.872 815.019 197.392 814.251 196.688C813.547 196.048 813.131 195.376 813.003 194.672C812.811 194.032 812.715 193.264 812.715 192.368C812.715 191.344 813.003 190.448 813.579 189.68C814.219 188.848 815.019 188.24 815.979 187.856C817.323 187.344 818.635 187.088 819.915 187.088C820.619 187.024 821.323 186.992 822.027 186.992C822.731 186.992 823.403 186.928 824.043 186.8H824.523C826.379 186.736 829.131 186.736 832.779 186.8C836.491 186.8 841.131 186.8 846.699 186.8C847.403 186.8 848.139 186.8 848.907 186.8C849.675 186.736 850.411 186.736 851.115 186.8C852.587 186.928 854.123 186.96 855.723 186.896C857.387 186.832 858.891 187.184 860.235 187.952C860.619 188.144 860.971 188.368 861.291 188.624C861.611 188.88 861.963 189.104 862.347 189.296C863.115 190 863.467 190.832 863.403 191.792C863.403 192.752 863.179 193.744 862.731 194.768C862.347 195.792 861.835 196.784 861.195 197.744C860.555 198.704 860.011 199.504 859.563 200.144Z" fill="black"/>
</svg>
