<svg width="160" height="80" viewBox="0 0 900 450" fill="none" xmlns="http://www.w3.org/2000/svg">
<path d="M234.269 102.307C228.31 102.948 221.637 104.696 216.52 106.969C214.447 107.901 206.285 112.038 198.382 116.176C183.159 124.101 155.952 138.32 131.919 150.79C103.287 165.708 90.7202 172.409 87.4813 174.565C80.2909 179.344 75.1734 186.337 73.6187 193.504C72.4527 198.924 73.0357 219.144 74.5256 224.389C75.6916 228.41 75.6916 228.701 74.5904 231.382C73.7483 233.538 73.3596 236.743 73.1652 244.726C72.7766 256.614 73.2948 259.994 76.3394 265.413C79.967 271.94 82.882 273.979 107.627 287.266C120.13 293.909 130.365 299.387 130.429 299.445C130.494 299.503 129.976 300.96 129.328 302.708C128.486 304.806 128.097 307.545 128.033 310.575C128.033 314.538 128.292 315.761 129.846 318.733C133.02 324.677 139.045 328.523 146.494 329.281C153.361 330.038 162.624 326.076 165.539 321.122C166.057 320.307 166.705 319.607 167.029 319.607C167.418 319.607 177.199 324.677 188.795 330.796C222.609 348.686 223.322 348.977 242.043 348.977C253.249 348.977 254.415 348.861 259.857 347.404C267.436 345.364 270.48 343.907 292.181 332.486C302.092 327.241 310.708 322.871 311.291 322.754C311.938 322.579 312.975 323.395 314.076 324.852C318.157 330.155 325.801 333.36 333.315 332.894C340.959 332.369 347.502 328.29 350.741 321.938C352.943 317.684 353.073 310.517 351 305.33C349.963 302.65 349.834 301.659 350.417 301.193C350.87 300.785 358.644 296.648 367.713 291.928C396.928 276.66 399.713 275.145 402.823 272.348C406.321 269.201 408.717 265.18 410.272 259.994C411.762 255.041 411.827 233.654 410.337 228.293C409.495 225.205 409.495 224.214 410.272 221.009C411.632 215.298 411.697 196.709 410.272 192.164C408.653 186.686 406.191 182.84 401.786 178.703C397.576 174.74 396.086 173.866 375.486 163.027C335.971 142.224 318.546 133.075 304.23 125.558C295.485 120.954 283.825 114.835 278.318 111.922C267.889 106.444 262.772 104.463 255.711 103.123C249.816 102.074 240.034 101.666 234.269 102.307ZM255.646 113.379C262.772 115.01 256.942 112.097 327.874 149.45C343.939 157.899 363.696 168.272 371.923 172.584C380.085 176.896 388.183 181.325 389.802 182.432C401.138 189.891 403.082 199.856 394.79 208.014C392.976 209.821 390.32 212.035 388.83 212.909C386.11 214.599 363.826 226.195 332.732 242.104C311.744 252.826 286.869 265.705 276.375 271.241C259.533 280.156 253.703 281.963 242.043 281.963C228.957 281.963 225.718 280.739 194.56 264.423C173.701 253.526 145.005 238.608 123.822 227.652C100.696 215.765 95.449 212.793 91.368 209.355C84.5015 203.527 82.882 197.292 86.5744 190.591C90.1372 184.122 92.0158 183.015 142.284 156.909C154.916 150.324 174.738 140.009 186.333 133.949C225.395 113.612 226.301 113.204 235.435 112.155C240.553 111.514 249.881 112.097 255.646 113.379ZM107.303 248.98C117.798 254.575 131.984 262.092 138.721 265.705C145.523 269.318 162.365 278.233 176.228 285.459C205.248 300.727 203.823 299.969 203.823 300.436C203.823 301.368 198.058 302.883 194.625 302.825C189.572 302.825 185.038 300.552 180.957 296.007C176.94 291.461 173.572 289.655 169.102 289.655C164.762 289.655 160.163 292.102 158.284 295.366C157.053 297.464 156.989 298.046 157.636 303.291C158.414 309.701 157.895 313.547 155.887 316.111C154.527 317.859 150.446 319.607 147.725 319.607C145.264 319.607 141.377 317.451 140.017 315.353C138.332 312.789 138.462 307.428 140.34 303C144.421 293.268 144.421 293.326 143.709 289.772C143.32 287.965 142.154 284.702 141.118 282.487C139.757 279.749 139.045 277.068 138.721 273.688C138.203 268.152 136.907 266.229 132.308 264.131C129.911 263.024 129.004 262.966 122.138 263.257C110.542 263.84 104 261.742 101.668 256.789C100.89 255.157 100.89 254.283 101.538 251.894C101.927 250.262 102.056 248.805 101.733 248.572C101.409 248.339 98.6879 247.523 95.6434 246.766C86.1857 244.435 84.631 243.27 84.631 238.433V236.743L86.4448 237.792C87.4165 238.375 96.8094 243.444 107.303 248.98ZM399.713 239.016C399.001 241.58 398.223 242.803 395.373 245.426L392.717 247.931L394.142 250.437C396.733 255.099 395.826 258.246 391.227 260.81C388.118 262.558 382.612 262.558 376.134 260.81C364.474 257.605 357.413 260.635 350.546 271.707C348.797 274.504 345.429 279.574 343.032 283.012C336.489 292.51 335.906 296.764 339.858 305.855C342.255 311.333 342.579 315.703 340.7 318.617C336.684 324.735 327.161 324.677 322.562 318.5C321.202 316.752 321.072 315.82 321.072 309.876C321.072 301.892 320.424 300.494 315.631 298.338C313.04 297.172 311.42 296.881 307.534 296.881C299.307 296.939 296.975 298.105 285.638 307.603C277.476 314.421 274.95 315.412 268.278 314.654C264.78 314.305 258.95 311.449 258.432 309.934C258.302 309.584 260.375 308.594 263.031 307.72C265.622 306.846 274.626 302.592 282.918 298.221C291.274 293.909 305.525 286.45 314.594 281.788C355.858 260.402 367.777 254.167 382.936 246.067C391.81 241.347 399.325 237.442 399.648 237.442C399.908 237.442 399.908 238.141 399.713 239.016ZM220.342 307.487C225.718 309.118 232.65 310.225 240.099 310.633C246.059 311.041 246.447 311.099 247.419 312.615C248.002 313.489 249.816 315.528 251.435 317.16L254.415 320.132L252.601 320.598C251.63 320.831 247.419 321.006 243.338 321.006C237.638 321.006 234.593 320.715 230.382 319.666C224.099 318.151 214.836 314.829 209.783 312.207L206.414 310.458L210.431 308.069C212.698 306.729 214.965 305.797 215.483 305.971C216.002 306.146 218.204 306.846 220.342 307.487Z" fill="black"/>
<path d="M281.558 143.973C287.064 146.771 303.971 155.337 319.129 163.029C372.766 190.359 375.486 191.699 375.486 191.175C375.486 190.709 362.401 182.317 353.462 177.073C333.251 165.243 297.169 147.819 280.068 141.701C275.922 140.186 272.294 138.962 272.035 138.962C271.776 138.962 276.051 141.235 281.558 143.973Z" fill="black"/>
<path d="M194.753 146.479C173.247 153.705 128.42 176.315 110.801 188.844C104.517 193.331 101.667 194.729 167.87 161.572C180.373 155.337 193.004 148.985 196.049 147.528C202.268 144.44 201.879 144.09 194.753 146.479Z" fill="black"/>
<path d="M117.667 210.287C117.667 210.404 122.137 213.143 127.578 216.29C154.137 231.907 220.017 266.288 220.017 264.54C220.017 263.957 182.964 242.221 171.109 235.811C147.595 223.166 117.667 208.889 117.667 210.287Z" fill="black"/>
<path d="M351.388 217.222C330.335 226.837 310.966 237.093 291.597 248.689C282.723 254.051 267.953 263.607 267.953 264.015C267.953 265.064 301.184 247.641 341.477 225.497C356.505 217.28 367.064 211.22 367.064 210.87C367.064 210.171 364.538 211.22 351.388 217.222Z" fill="black"/>
<path d="M523.072 247.472C523.136 247.856 523.168 248.24 523.168 248.624C523.232 248.944 523.264 249.328 523.264 249.776C523.264 250.544 523.04 251.248 522.592 251.888C522.4 252.208 522.144 252.528 521.824 252.848C521.504 253.104 521.12 253.328 520.672 253.52C519.072 254.416 517.376 254.736 515.584 254.48C514.688 254.224 513.888 253.808 513.184 253.232C513.056 253.104 512.96 253.04 512.896 253.04C512.832 252.976 512.768 252.88 512.704 252.752C512.64 252.688 512.576 252.624 512.512 252.56C512.448 252.432 512.352 252.336 512.224 252.272C511.904 251.952 511.648 251.664 511.456 251.408C511.264 251.088 511.072 250.768 510.88 250.448C510.752 250.128 510.592 249.84 510.4 249.584C510.272 249.264 510.112 248.944 509.92 248.624C509.792 248.368 509.664 248.144 509.536 247.952C509.408 247.696 509.312 247.44 509.248 247.184C508.992 246.608 508.832 246.096 508.768 245.648L506.752 240.944C502.336 240.944 497.92 240.976 493.504 241.04C489.152 241.04 484.768 241.008 480.352 240.944L478.336 245.648C478.208 245.904 478.112 246.16 478.048 246.416C478.048 246.672 477.984 246.928 477.856 247.184C477.728 247.44 477.6 247.696 477.472 247.952C477.408 248.144 477.312 248.368 477.184 248.624C476.992 248.944 476.8 249.264 476.608 249.584C476.48 249.84 476.32 250.128 476.128 250.448C476 250.768 475.84 251.088 475.648 251.408C475.456 251.664 475.2 251.952 474.88 252.272C474.752 252.336 474.656 252.432 474.592 252.56C474.528 252.624 474.464 252.688 474.4 252.752C474.336 252.88 474.272 252.976 474.208 253.04C474.144 253.04 474.048 253.104 473.92 253.232C473.216 253.808 472.416 254.224 471.52 254.48C469.728 254.736 468.032 254.416 466.432 253.52C465.984 253.328 465.6 253.104 465.28 252.848C464.96 252.528 464.704 252.208 464.512 251.888C464.064 251.248 463.84 250.544 463.84 249.776C463.84 249.328 463.84 248.944 463.84 248.624C463.904 248.24 463.968 247.856 464.032 247.472C464.16 246.896 464.32 246.32 464.512 245.744C464.704 245.168 464.8 244.88 464.8 244.88L484.768 195.728L485.344 194.192C485.472 193.808 485.632 193.456 485.824 193.136C486.016 192.816 486.176 192.432 486.304 191.984C486.624 191.152 486.976 190.416 487.36 189.776C487.552 189.392 487.776 189.04 488.032 188.72C488.288 188.4 488.544 188.08 488.8 187.76C489.184 187.248 489.728 186.832 490.432 186.512C491.328 186.192 492.352 186.032 493.504 186.032C494.72 186.032 495.776 186.192 496.672 186.512C497.376 186.832 497.92 187.248 498.304 187.76C498.752 188.336 499.232 189.008 499.744 189.776C500.128 190.416 500.48 191.152 500.8 191.984C500.928 192.432 501.088 192.816 501.28 193.136C501.472 193.456 501.632 193.808 501.76 194.192L502.336 195.728L522.304 244.88C522.304 244.88 522.4 245.168 522.592 245.744C522.784 246.32 522.944 246.896 523.072 247.472ZM500.32 223.952C499.488 222.096 498.624 220.176 497.728 218.192C496.896 216.208 496 214.192 495.04 212.144C494.784 211.568 494.528 210.992 494.272 210.416C494.016 209.776 493.76 209.168 493.504 208.592C493.312 209.168 493.088 209.776 492.832 210.416C492.576 210.992 492.32 211.568 492.064 212.144C491.104 214.192 490.176 216.208 489.28 218.192C488.448 220.176 487.616 222.096 486.784 223.952L485.056 228.176H502.048L500.32 223.952ZM580.693 226.064C581.013 226.96 581.237 227.984 581.365 229.136C581.557 230.224 581.653 231.344 581.653 232.496C581.653 233.648 581.557 234.8 581.365 235.952C581.237 237.04 581.045 238 580.789 238.832C579.765 242.416 577.717 245.424 574.645 247.856C571.573 250.224 568.053 251.952 564.085 253.04C560.181 254.128 556.117 254.512 551.893 254.192C547.733 253.872 544.021 252.816 540.757 251.024C538.709 249.872 536.949 248.464 535.477 246.8C534.005 245.136 532.757 243.28 531.733 241.232C531.349 240.528 531.093 239.728 530.965 238.832C530.901 237.872 530.997 236.976 531.253 236.144C531.509 235.248 531.925 234.48 532.501 233.84C533.077 233.136 533.877 232.656 534.901 232.4C535.541 232.272 536.245 232.208 537.013 232.208C537.845 232.208 538.645 232.336 539.413 232.592C540.181 232.784 540.885 233.136 541.525 233.648C542.165 234.096 542.677 234.736 543.061 235.568C543.765 236.912 544.757 238.16 546.037 239.312C547.381 240.4 548.789 241.296 550.261 242C552.373 242.704 554.485 242.992 556.597 242.864C558.773 242.736 560.725 242.256 562.453 241.424C564.245 240.592 565.685 239.472 566.773 238.064C567.861 236.592 568.405 234.928 568.405 233.072C568.405 231.536 568.181 230.288 567.733 229.328C567.285 228.304 566.645 227.472 565.813 226.832C565.045 226.128 564.085 225.552 562.933 225.104C561.845 224.656 560.629 224.272 559.285 223.952C557.749 223.632 556.181 223.408 554.581 223.28C553.045 223.152 551.477 222.992 549.877 222.8C548.277 222.608 546.709 222.352 545.173 222.032C543.637 221.712 542.133 221.232 540.661 220.592C537.717 219.376 535.477 217.52 533.941 215.024C532.405 212.528 531.477 209.84 531.157 206.96C530.901 204.08 531.253 201.232 532.213 198.416C533.173 195.536 534.709 193.072 536.821 191.024C538.869 189.168 541.301 187.856 544.117 187.088C546.997 186.256 550.165 185.776 553.621 185.648C555.541 185.584 557.461 185.648 559.381 185.84C561.365 186.032 563.253 186.352 565.045 186.8C566.901 187.248 568.597 187.824 570.133 188.528C571.733 189.232 573.109 190.064 574.261 191.024C575.093 191.664 575.925 192.528 576.757 193.616C577.589 194.64 578.229 195.76 578.677 196.976C579.125 198.128 579.253 199.248 579.061 200.336C578.933 201.424 578.261 202.352 577.045 203.12C576.021 203.76 575.029 204.048 574.069 203.984C573.173 203.856 572.309 203.568 571.477 203.12C570.645 202.608 569.845 202.032 569.077 201.392C568.309 200.752 567.605 200.176 566.965 199.664C565.237 198.384 563.093 197.52 560.533 197.072C557.973 196.624 555.573 196.528 553.333 196.784C551.925 196.976 550.613 197.296 549.397 197.744C548.181 198.192 547.125 198.8 546.229 199.568C545.397 200.336 544.725 201.296 544.213 202.448C543.765 203.536 543.605 204.784 543.733 206.192C543.797 207.216 544.085 208.08 544.597 208.784C545.173 209.488 545.845 210.064 546.613 210.512C547.445 210.96 548.341 211.312 549.301 211.568C550.261 211.824 551.221 212.016 552.181 212.144C555.061 212.528 557.941 212.816 560.821 213.008C563.701 213.2 566.517 213.84 569.269 214.928C572.085 216.016 574.485 217.488 576.469 219.344C578.453 221.2 579.861 223.44 580.693 226.064ZM640.059 190.736C640.123 191.184 640.155 191.6 640.155 191.984C640.155 192.368 640.155 192.752 640.155 193.136V197.072L639.579 246.896V247.856C639.579 248.24 639.483 248.816 639.291 249.584C639.227 249.904 639.131 250.256 639.003 250.64C638.875 250.96 638.747 251.312 638.619 251.696C638.299 252.464 637.851 253.04 637.275 253.424C636.763 253.936 635.931 254.288 634.779 254.48C632.987 254.864 631.355 254.704 629.883 254C629.051 253.488 628.475 252.848 628.155 252.08C628.027 251.952 627.899 251.76 627.771 251.504C627.771 251.376 627.707 251.184 627.579 250.928C627.451 250.608 627.355 250.288 627.291 249.968C627.227 249.584 627.163 249.2 627.099 248.816C627.099 248.496 627.067 248.176 627.003 247.856C627.003 247.536 626.971 247.216 626.907 246.896C626.779 246.576 626.715 246.32 626.715 246.128C626.715 245.872 626.715 245.584 626.715 245.264C626.843 245.008 626.907 244.528 626.907 243.824L627.003 236.24L627.099 224.144H621.915L602.427 224.24L602.235 246.896V247.856C602.235 248.24 602.139 248.816 601.947 249.584C601.883 249.904 601.787 250.256 601.659 250.64C601.531 250.96 601.403 251.312 601.275 251.696C600.955 252.464 600.507 253.04 599.931 253.424C599.419 253.936 598.587 254.288 597.435 254.48C595.643 254.864 594.011 254.704 592.539 254C591.899 253.616 591.291 252.976 590.715 252.08C590.587 251.824 590.523 251.632 590.523 251.504L590.235 250.928C590.107 250.608 590.011 250.288 589.947 249.968C589.883 249.584 589.819 249.2 589.755 248.816C589.755 248.496 589.723 248.176 589.659 247.856C589.595 247.536 589.531 247.216 589.467 246.896C589.403 246.384 589.403 245.84 589.467 245.264V243.824L589.563 236.24L589.755 222.128C589.819 220.08 589.851 217.968 589.851 215.792C589.851 213.616 589.851 211.376 589.851 209.072C589.787 206.768 589.755 204.72 589.755 202.928C589.819 201.136 589.915 199.12 590.043 196.88V196.496C590.107 195.856 590.139 195.216 590.139 194.576C590.139 193.872 590.171 193.168 590.235 192.464C590.299 191.824 590.395 191.216 590.523 190.64C590.715 190 590.971 189.36 591.291 188.72C591.483 188.208 591.739 187.792 592.059 187.472C592.379 187.088 592.763 186.736 593.211 186.416C594.235 185.904 595.259 185.648 596.283 185.648C596.795 185.648 597.243 185.68 597.627 185.744C598.011 185.744 598.395 185.776 598.779 185.84C599.547 185.904 600.283 186.288 600.987 186.992C601.499 187.44 601.851 187.952 602.043 188.528C602.363 189.36 602.555 190.096 602.619 190.736C602.683 191.184 602.715 191.6 602.715 191.984C602.715 192.368 602.715 192.752 602.715 193.136V197.072L602.523 212.912C603.035 212.912 603.611 212.912 604.251 212.912C604.955 212.912 605.755 212.88 606.651 212.816C609.979 212.816 613.275 212.848 616.539 212.912C619.867 212.976 623.355 213.008 627.003 213.008H627.099C627.099 210.128 627.099 207.376 627.099 204.752C627.163 202.128 627.259 199.376 627.387 196.496C627.387 195.856 627.387 195.216 627.387 194.576C627.451 193.872 627.515 193.168 627.579 192.464C627.643 191.824 627.739 191.216 627.867 190.64C628.059 190 628.315 189.36 628.635 188.72C628.763 188.208 628.987 187.792 629.307 187.472C629.691 187.088 630.139 186.736 630.651 186.416C631.547 185.904 632.539 185.648 633.627 185.648C634.139 185.648 634.587 185.68 634.971 185.744C635.419 185.744 635.803 185.776 636.123 185.84C637.019 185.968 637.755 186.352 638.331 186.992C638.843 187.312 639.195 187.824 639.387 188.528C639.515 188.912 639.611 189.296 639.675 189.68C639.803 190 639.931 190.352 640.059 190.736ZM689.439 192.08C691.871 194.32 693.663 197.008 694.815 200.144C695.967 203.216 696.415 206.288 696.159 209.36C695.903 212.304 694.975 215.024 693.375 217.52C691.775 219.952 689.343 221.808 686.079 223.088C683.519 224.176 680.991 224.944 678.495 225.392C675.999 225.84 673.247 226.192 670.239 226.448C668.895 226.576 667.743 226.672 666.783 226.736C665.887 226.736 664.831 226.768 663.615 226.832C663.359 226.832 662.911 226.832 662.271 226.832C661.695 226.832 661.279 226.864 661.023 226.928V246.8C660.831 248.016 660.575 249.264 660.255 250.544C659.999 251.824 659.263 252.816 658.047 253.52C657.343 253.904 656.479 254.128 655.455 254.192C654.431 254.256 653.503 254.224 652.671 254.096C651.775 253.968 651.007 253.744 650.367 253.424C649.791 253.04 649.311 252.4 648.927 251.504C648.671 250.928 648.415 250.288 648.159 249.584C647.967 248.816 647.871 247.888 647.871 246.8V193.712C647.871 193.264 647.903 192.848 647.967 192.464C648.031 192.08 648.095 191.696 648.159 191.312C648.287 190.992 648.383 190.64 648.447 190.256C648.511 189.872 648.607 189.52 648.735 189.2C648.863 188.88 648.991 188.592 649.119 188.336C649.311 188.08 649.535 187.856 649.791 187.664C650.111 187.344 650.591 187.056 651.231 186.8C651.935 186.544 652.959 186.416 654.303 186.416H654.495C656.479 186.288 658.687 186.192 661.119 186.128C663.551 186 665.567 186.032 667.167 186.224C668.063 186.352 668.895 186.448 669.663 186.512C670.431 186.512 671.167 186.544 671.871 186.608C672.639 186.672 673.407 186.736 674.175 186.8C674.943 186.864 675.711 186.96 676.479 187.088C677.119 187.216 677.695 187.312 678.207 187.376C678.783 187.44 679.359 187.536 679.935 187.664C680.447 187.792 680.991 187.92 681.567 188.048C682.207 188.176 682.783 188.4 683.295 188.72C684.639 189.104 685.759 189.584 686.655 190.16C687.551 190.736 688.479 191.376 689.439 192.08ZM683.679 207.92C683.743 206.384 683.423 205.04 682.719 203.888C682.079 202.736 681.151 201.776 679.935 201.008C678.719 200.24 677.343 199.632 675.807 199.184C674.271 198.736 672.735 198.416 671.199 198.224C670.815 198.224 670.271 198.224 669.567 198.224C668.927 198.16 668.223 198.128 667.455 198.128C666.687 198.064 665.951 198.032 665.247 198.032C664.607 197.968 664.095 197.936 663.711 197.936C663.391 197.872 663.007 197.84 662.559 197.84C662.111 197.84 661.599 197.84 661.023 197.84C661.087 199.824 661.119 201.744 661.119 203.6C661.119 205.392 661.119 207.344 661.119 209.456C661.055 210.608 661.023 211.76 661.023 212.912C661.023 214.064 661.023 215.184 661.023 216.272L666.975 216.176C668.511 216.176 670.207 216.08 672.063 215.888C673.919 215.696 675.679 215.312 677.343 214.736C679.007 214.16 680.415 213.328 681.567 212.24C682.783 211.152 683.487 209.712 683.679 207.92ZM717.18 197.552L716.988 212.624H720.828C723.452 212.56 725.788 212.528 727.836 212.528C729.884 212.528 732.156 212.56 734.652 212.624H735.132C735.9 212.624 736.636 212.656 737.34 212.72C738.108 212.72 738.844 212.72 739.548 212.72C740.316 212.784 741.052 212.912 741.756 213.104C742.46 213.232 743.164 213.392 743.868 213.584C744.956 213.968 745.852 214.544 746.556 215.312C747.196 216.144 747.516 217.072 747.516 218.096C747.516 218.416 747.516 218.8 747.516 219.248C747.516 219.632 747.452 219.984 747.324 220.304C747.196 221.008 746.78 221.648 746.076 222.224C745.756 222.672 745.148 222.992 744.252 223.184C743.42 223.44 742.588 223.6 741.756 223.664C740.86 223.856 739.964 223.952 739.068 223.952H734.556L716.796 224.048L716.604 242.864L735.708 243.056H740.22C740.732 243.056 741.212 243.056 741.66 243.056C742.108 243.056 742.524 243.088 742.908 243.152C743.42 243.28 743.868 243.376 744.252 243.44C744.7 243.44 745.116 243.504 745.5 243.632C746.268 243.888 746.908 244.24 747.42 244.688C748.06 245.328 748.476 246 748.667 246.704C748.732 247.024 748.764 247.376 748.764 247.76C748.828 248.08 748.828 248.432 748.764 248.816C748.764 249.84 748.444 250.768 747.804 251.6C747.036 252.496 746.14 253.072 745.116 253.328C743.772 253.904 742.3 254.192 740.7 254.192C739.996 254.256 739.26 254.288 738.492 254.288C737.724 254.288 736.988 254.32 736.284 254.384H735.708C730.716 254.512 725.532 254.512 720.156 254.384C718.876 254.384 717.852 254.352 717.084 254.288C716.316 254.288 715.612 254.288 714.972 254.288C714.396 254.288 713.788 254.288 713.148 254.288C712.508 254.288 711.676 254.288 710.652 254.288C709.18 254.416 707.964 254.16 707.004 253.52C706.3 253.072 705.756 252.464 705.372 251.696C705.18 251.504 705.084 251.312 705.084 251.12C705.02 250.992 704.956 250.896 704.892 250.832C704.828 250.768 704.764 250.672 704.7 250.544C704.572 250.224 704.476 249.904 704.412 249.584C704.348 249.2 704.316 248.848 704.316 248.528C704.252 248.208 704.188 247.888 704.124 247.568C704.124 247.248 704.092 246.928 704.028 246.608V245.072C704.028 244.816 704.028 244.56 704.028 244.304C704.092 244.048 704.124 243.792 704.124 243.536V236.048L704.316 222.224V209.456C704.316 207.152 704.316 205.104 704.316 203.312C704.38 201.52 704.444 199.568 704.508 197.456V196.976C704.572 196.272 704.604 195.632 704.604 195.056C704.668 194.416 704.7 193.776 704.7 193.136C704.764 191.856 705.116 190.608 705.756 189.392C706.012 188.88 706.268 188.432 706.523 188.048C706.844 187.664 707.26 187.344 707.772 187.088C708.732 186.512 709.724 186.224 710.748 186.224C711.26 186.224 711.644 186.256 711.9 186.32V186.224C713.052 186.224 713.98 186.224 714.684 186.224C715.388 186.224 716.06 186.224 716.7 186.224C717.404 186.224 718.14 186.224 718.908 186.224C719.676 186.16 720.732 186.128 722.076 186.128C724.636 186.064 727.068 186.032 729.372 186.032C731.676 186.032 734.044 186.064 736.476 186.128H736.86C737.564 186.192 738.3 186.224 739.068 186.224C739.836 186.224 740.572 186.256 741.276 186.32C741.98 186.32 742.684 186.416 743.388 186.608C744.092 186.736 744.796 186.928 745.5 187.184C746.588 187.504 747.484 188.048 748.188 188.816C748.764 189.712 749.052 190.608 749.052 191.504C749.052 191.888 749.052 192.272 749.052 192.656C749.052 192.976 748.988 193.296 748.86 193.616C748.796 194.256 748.412 194.928 747.708 195.632C747.452 195.76 747.164 195.92 746.844 196.112C746.588 196.304 746.268 196.464 745.884 196.592C745.5 196.72 745.084 196.816 744.636 196.88C744.252 196.88 743.868 196.912 743.484 196.976C742.972 197.104 742.492 197.168 742.044 197.168C741.66 197.168 741.212 197.168 740.7 197.168H736.38L717.18 197.264V197.552ZM803.563 200.144C802.667 201.488 801.739 202.8 800.779 204.08C799.819 205.36 798.891 206.64 797.995 207.92C793.963 213.68 789.931 219.408 785.899 225.104C781.931 230.8 777.963 236.56 773.995 242.384C774.955 242.384 775.691 242.384 776.203 242.384C776.715 242.384 777.131 242.384 777.451 242.384C777.835 242.384 778.251 242.384 778.699 242.384C779.147 242.384 779.819 242.416 780.715 242.48C781.611 242.48 782.827 242.48 784.363 242.48C785.963 242.48 788.075 242.48 790.699 242.48C792.363 242.48 793.995 242.48 795.595 242.48C797.259 242.48 798.923 242.544 800.587 242.672C800.907 242.736 801.259 242.8 801.643 242.864C802.027 242.864 802.379 242.928 802.699 243.056L803.275 243.344C803.275 243.344 803.467 243.408 803.851 243.536C804.619 243.984 805.259 244.496 805.771 245.072C806.667 246.352 806.923 247.792 806.539 249.392C806.475 249.84 806.315 250.256 806.059 250.64C805.867 250.96 805.643 251.248 805.387 251.504C804.875 252.016 804.267 252.368 803.563 252.56C802.859 252.944 802.123 253.168 801.355 253.232C801.035 253.296 800.715 253.36 800.395 253.424C800.139 253.424 799.851 253.424 799.531 253.424H764.683C764.299 253.424 763.915 253.424 763.531 253.424C763.147 253.424 762.763 253.392 762.379 253.328C762.187 253.264 761.995 253.232 761.803 253.232C761.675 253.232 761.547 253.2 761.419 253.136C761.163 253.072 760.907 253.04 760.651 253.04C760.459 252.976 760.203 252.912 759.883 252.848C759.179 252.464 758.635 252.112 758.251 251.792C757.483 251.216 757.067 250.608 757.003 249.968V249.872C756.875 249.552 756.779 249.264 756.715 249.008C756.715 248.752 756.747 248.432 756.811 248.048C756.811 247.984 756.779 247.952 756.715 247.952C756.715 247.888 756.715 247.792 756.715 247.664C756.715 247.28 756.779 246.928 756.907 246.608C757.035 246.224 757.163 245.84 757.291 245.456C757.419 245.264 757.515 245.072 757.579 244.88C757.707 244.624 757.867 244.4 758.059 244.208C758.187 243.888 758.347 243.568 758.539 243.248C758.795 242.928 758.987 242.608 759.115 242.288C759.243 242.032 759.371 241.776 759.499 241.52C759.691 241.2 759.851 240.944 759.979 240.752C760.235 240.496 760.427 240.272 760.555 240.08C760.747 239.824 760.907 239.568 761.035 239.312L766.027 232.304L774.955 219.344C776.363 217.488 777.739 215.568 779.083 213.584C780.491 211.536 781.931 209.424 783.403 207.248C784.491 205.584 785.483 204.144 786.379 202.928C787.275 201.648 788.235 200.272 789.259 198.8C787.019 198.8 784.907 198.8 782.923 198.8C781.003 198.8 779.083 198.8 777.163 198.8C775.243 198.736 773.227 198.704 771.115 198.704C769.067 198.64 766.795 198.576 764.299 198.512C763.403 198.448 762.347 198.32 761.131 198.128C759.979 197.872 759.019 197.392 758.251 196.688C757.547 196.048 757.131 195.376 757.003 194.672C756.811 194.032 756.715 193.264 756.715 192.368C756.715 191.344 757.003 190.448 757.579 189.68C758.219 188.848 759.019 188.24 759.979 187.856C761.323 187.344 762.635 187.088 763.915 187.088C764.619 187.024 765.323 186.992 766.027 186.992C766.731 186.992 767.403 186.928 768.043 186.8H768.523C770.379 186.736 773.131 186.736 776.779 186.8C780.491 186.8 785.131 186.8 790.699 186.8C791.403 186.8 792.139 186.8 792.907 186.8C793.675 186.736 794.411 186.736 795.115 186.8C796.587 186.928 798.123 186.96 799.723 186.896C801.387 186.832 802.891 187.184 804.235 187.952C804.619 188.144 804.971 188.368 805.291 188.624C805.611 188.88 805.963 189.104 806.347 189.296C807.115 190 807.467 190.832 807.403 191.792C807.403 192.752 807.179 193.744 806.731 194.768C806.347 195.792 805.835 196.784 805.195 197.744C804.555 198.704 804.011 199.504 803.563 200.144Z" fill="black"/>
</svg>
