<svg width="80" height="80" viewBox="0 0 450 450" fill="none" xmlns="http://www.w3.org/2000/svg">
<path d="M216.738 59.3065C210.778 59.9475 204.106 61.6957 198.989 63.9684C196.916 64.9007 188.754 69.0381 180.851 73.1755C165.628 81.1007 138.421 95.3193 114.388 107.79C85.756 122.708 73.1889 129.409 69.95 131.565C62.7596 136.344 57.6421 143.336 56.0874 150.504C54.9214 155.923 55.5044 176.144 56.9943 181.389C58.1604 185.41 58.1604 185.701 57.0591 188.382C56.217 190.538 55.8283 193.743 55.634 201.726C55.2453 213.614 55.7636 216.994 58.8081 222.413C62.4357 228.94 65.3508 230.979 90.0961 244.266C102.598 250.909 112.833 256.386 112.898 256.445C112.963 256.503 112.445 257.96 111.797 259.708C110.955 261.806 110.566 264.545 110.501 267.575C110.501 271.537 110.76 272.761 112.315 275.733C115.489 281.677 121.514 285.523 128.963 286.28C135.83 287.038 145.093 283.075 148.008 278.122C148.526 277.306 149.174 276.607 149.498 276.607C149.887 276.607 159.668 281.677 171.263 287.796C205.078 305.685 205.79 305.977 224.511 305.977C235.718 305.977 236.884 305.86 242.325 304.403C249.904 302.364 252.949 300.907 274.65 289.486C284.561 284.241 293.176 279.87 293.759 279.754C294.407 279.579 295.444 280.395 296.545 281.852C300.626 287.155 308.27 290.36 315.784 289.893C323.428 289.369 329.971 285.29 333.209 278.938C335.412 274.684 335.542 267.517 333.469 262.33C332.432 259.65 332.303 258.659 332.886 258.193C333.339 257.785 341.112 253.648 350.181 248.927C379.396 233.66 382.182 232.145 385.291 229.348C388.789 226.201 391.186 222.18 392.741 216.994C394.231 212.04 394.296 190.654 392.806 185.293C391.963 182.205 391.964 181.214 392.741 178.009C394.101 172.298 394.166 153.709 392.741 149.164C391.121 143.686 388.66 139.84 384.255 135.703C380.044 131.74 378.554 130.866 357.955 120.027C318.44 99.2236 301.015 90.0747 286.699 82.5575C277.954 77.9539 266.293 71.8352 260.787 68.9216C250.358 63.4439 245.24 61.4626 238.18 60.1223C232.285 59.0734 222.503 58.6655 216.738 59.3065ZM238.115 70.3784C245.24 72.0101 239.41 69.0964 310.343 106.449C326.408 114.899 346.165 125.272 354.392 129.584C362.554 133.896 370.651 138.325 372.271 139.432C383.607 146.891 385.55 156.856 377.259 165.014C375.445 166.82 372.789 169.035 371.299 169.909C368.578 171.599 346.295 183.195 315.201 199.104C294.213 209.826 269.338 222.704 258.844 228.24C242.001 237.156 236.171 238.963 224.511 238.963C211.426 238.963 208.187 237.739 177.029 221.422C156.17 210.525 127.473 195.607 106.291 184.652C83.1648 172.764 77.9178 169.792 73.8367 166.354C66.9702 160.527 65.3508 154.292 69.0431 147.59C72.6059 141.122 74.4845 140.015 124.753 113.908C137.384 107.324 157.207 97.0092 168.802 90.9488C207.863 70.6115 208.77 70.2036 217.904 69.1547C223.021 68.5137 232.349 69.0964 238.115 70.3784ZM89.7722 205.98C100.266 211.574 114.453 219.092 121.19 222.704C127.991 226.317 144.834 235.233 158.696 242.459C187.717 257.727 186.292 256.969 186.292 257.435C186.292 258.368 180.527 259.883 177.094 259.824C172.041 259.824 167.506 257.552 163.425 253.007C159.409 248.461 156.041 246.655 151.571 246.655C147.231 246.655 142.631 249.102 140.753 252.365C139.522 254.463 139.457 255.046 140.105 260.291C140.882 266.701 140.364 270.547 138.356 273.111C136.996 274.859 132.915 276.607 130.194 276.607C127.732 276.607 123.846 274.451 122.485 272.353C120.801 269.789 120.931 264.428 122.809 259.999C126.89 250.268 126.89 250.326 126.178 246.771C125.789 244.965 124.623 241.702 123.587 239.487C122.226 236.748 121.514 234.068 121.19 230.688C120.672 225.152 119.376 223.229 114.777 221.131C112.38 220.024 111.473 219.966 104.606 220.257C93.0111 220.84 86.4685 218.742 84.1365 213.789C83.3592 212.157 83.3592 211.283 84.0069 208.894C84.3956 207.262 84.5252 205.805 84.2013 205.572C83.8774 205.339 81.1567 204.523 78.1121 203.766C68.6545 201.435 67.0998 200.269 67.0998 195.433V193.743L68.9136 194.792C69.8852 195.374 79.2781 200.444 89.7722 205.98ZM382.182 196.015C381.469 198.579 380.692 199.803 377.842 202.425L375.186 204.931L376.611 207.437C379.202 212.099 378.295 215.245 373.696 217.81C370.587 219.558 365.08 219.558 358.603 217.81C346.942 214.604 339.882 217.635 333.015 228.707C331.266 231.504 327.898 236.573 325.501 240.012C318.958 249.51 318.375 253.764 322.327 262.855C324.723 268.332 325.047 272.703 323.169 275.616C319.153 281.735 309.63 281.677 305.031 275.5C303.671 273.752 303.541 272.819 303.541 266.876C303.541 258.892 302.893 257.494 298.1 255.337C295.508 254.172 293.889 253.881 290.002 253.881C281.775 253.939 279.443 255.104 268.107 264.603C259.945 271.421 257.419 272.411 250.747 271.654C247.249 271.304 241.418 268.449 240.9 266.934C240.771 266.584 242.844 265.594 245.5 264.719C248.091 263.845 257.095 259.591 265.386 255.221C273.743 250.909 287.994 243.45 297.063 238.788C338.327 217.402 350.246 211.166 365.404 203.066C374.279 198.346 381.793 194.442 382.117 194.442C382.376 194.442 382.376 195.141 382.182 196.015ZM202.811 264.486C208.187 266.118 215.118 267.225 222.568 267.633C228.528 268.041 228.916 268.099 229.888 269.614C230.471 270.488 232.285 272.528 233.904 274.16L236.884 277.132L235.07 277.598C234.099 277.831 229.888 278.006 225.807 278.006C220.106 278.006 217.062 277.714 212.851 276.665C206.568 275.15 197.304 271.829 192.252 269.206L188.883 267.458L192.899 265.069C195.167 263.729 197.434 262.796 197.952 262.971C198.47 263.146 200.673 263.845 202.811 264.486Z" fill="black"/>
<path d="M89.7722 205.98C100.266 211.574 114.453 219.092 121.19 222.704C127.991 226.317 144.834 235.233 158.696 242.459C187.717 257.727 186.292 256.969 186.292 257.435C186.292 258.368 180.527 259.883 177.094 259.824C172.041 259.824 167.506 257.552 163.425 253.007C159.409 248.461 156.041 246.655 151.571 246.655C147.231 246.655 142.631 249.102 140.753 252.365C139.522 254.463 139.457 255.046 140.105 260.291C140.882 266.701 140.364 270.547 138.356 273.111C136.996 274.859 132.915 276.607 130.194 276.607C127.732 276.607 123.846 274.451 122.485 272.353C120.801 269.789 120.931 264.428 122.809 259.999C126.89 250.268 126.89 250.326 126.178 246.771C125.789 244.965 124.623 241.702 123.587 239.487C122.226 236.748 121.514 234.068 121.19 230.688C120.672 225.152 119.376 223.229 114.777 221.131C112.38 220.024 111.473 219.966 104.606 220.257C93.0111 220.84 86.4685 218.742 84.1365 213.789C83.3592 212.157 83.3592 211.283 84.0069 208.894C84.3956 207.262 84.5252 205.805 84.2013 205.572C83.8774 205.339 81.1567 204.523 78.1121 203.766C68.6545 201.435 67.0998 200.269 67.0998 195.433V193.743L68.9136 194.792C69.8852 195.374 79.2781 200.444 89.7722 205.98Z" fill="#FBDB65"/>
<path d="M202.811 264.486C208.187 266.118 215.118 267.225 222.568 267.633C228.528 268.041 228.916 268.099 229.888 269.614C230.471 270.488 232.285 272.528 233.904 274.16L236.884 277.132L235.07 277.598C234.099 277.831 229.888 278.006 225.807 278.006C220.106 278.006 217.062 277.714 212.851 276.665C206.568 275.15 197.304 271.829 192.252 269.206L188.883 267.458L192.899 265.069C195.167 263.729 197.434 262.796 197.952 262.971C198.47 263.146 200.673 263.845 202.811 264.486Z" fill="#FBDB65"/>
<path d="M382.182 196.015C381.469 198.579 380.692 199.803 377.842 202.425L375.186 204.931L376.611 207.437C379.202 212.099 378.295 215.245 373.696 217.81C370.587 219.558 365.08 219.558 358.603 217.81C346.942 214.604 339.882 217.635 333.015 228.707C331.266 231.504 327.898 236.573 325.501 240.012C318.958 249.51 318.375 253.764 322.327 262.855C324.723 268.332 325.047 272.703 323.169 275.616C319.153 281.735 309.63 281.677 305.031 275.5C303.671 273.752 303.541 272.819 303.541 266.876C303.541 258.892 302.893 257.494 298.1 255.337C295.508 254.172 293.889 253.881 290.002 253.881C281.775 253.939 279.443 255.104 268.107 264.603C259.945 271.421 257.419 272.411 250.747 271.654C247.249 271.304 241.418 268.449 240.9 266.934C240.771 266.584 242.844 265.594 245.5 264.719C248.091 263.845 257.095 259.591 265.386 255.221C273.743 250.909 287.994 243.45 297.063 238.788C338.327 217.402 350.246 211.166 365.404 203.066C374.279 198.346 381.793 194.442 382.117 194.442C382.376 194.442 382.376 195.141 382.182 196.015Z" fill="#FBDB65"/>
<path d="M264.026 100.973C269.532 103.77 286.44 112.336 301.598 120.029C355.234 147.359 357.955 148.699 357.955 148.174C357.955 147.708 344.87 139.317 335.93 134.072C315.719 122.243 279.638 104.819 262.536 98.7005C258.391 97.1854 254.763 95.9617 254.504 95.9617C254.245 95.9617 258.52 98.2344 264.026 100.973Z" fill="black"/>
<path d="M177.222 103.479C155.716 110.705 110.889 133.315 93.2694 145.843C86.9859 150.331 84.1357 151.729 150.339 118.572C162.841 112.336 175.473 105.985 178.518 104.528C184.737 101.439 184.348 101.09 177.222 103.479Z" fill="black"/>
<path d="M100.136 167.287C100.136 167.404 104.605 170.143 110.047 173.289C136.606 188.907 202.486 223.288 202.486 221.54C202.486 220.957 165.432 199.221 153.578 192.811C130.063 180.166 100.136 165.889 100.136 167.287Z" fill="black"/>
<path d="M333.856 174.222C312.803 183.837 293.435 194.093 274.066 205.689C265.191 211.05 250.422 220.607 250.422 221.015C250.422 222.064 283.653 204.64 323.945 182.497C338.974 174.28 349.533 168.22 349.533 167.87C349.533 167.171 347.006 168.22 333.856 174.222Z" fill="black"/>
<path d="M384.513 263.496C381.404 264.545 349.662 281.386 347.46 283.134C346.164 284.183 345.646 285.29 345.322 287.854C344.804 291.642 345.192 294.963 346.358 296.187C347.395 297.352 349.986 297.178 351.994 295.896C354.974 294.031 368.966 286.514 368.966 286.805C368.966 286.98 364.561 292.049 359.12 298.052C353.678 304.054 348.318 310.406 346.618 312.329C344.917 314.251 344.026 317.517 344.026 318.275C344.026 319.033 344.026 321.477 344.026 321.477C344.026 326.431 344.221 327.421 345.387 328.878C346.618 330.335 347.201 330.51 350.245 330.451C353.614 330.451 354.585 329.985 372.788 320.195C394.489 308.599 394.23 308.832 394.23 302.072C394.23 297.527 393.517 295.837 391.574 295.837C390.796 295.837 385.161 298.576 378.942 301.898C372.723 305.219 367.67 307.842 367.67 307.725C367.67 307.667 371.363 303.471 375.833 298.401C388.659 284.066 394.1 277.423 394.748 275.325C395.072 274.276 395.072 271.596 394.813 269.323C394.424 265.943 394.1 265.069 392.675 263.962C390.667 262.447 388.011 262.272 384.513 263.496Z" fill="black"/>
<path d="M56.5405 264.486C55.7793 264.894 55.7146 265.885 55.6012 266.264C55.4879 266.643 55.2924 277.661 55.1153 285.057C54.7914 296.828 55.2126 304.229 55.6012 305.161C56.4434 307.084 56.67 307.958 63.2127 311.396C70.2735 315.126 70.6622 315.184 72.2169 314.019C73.3181 313.203 73.5772 312.212 73.7068 308.483L73.9011 303.996L81.221 307.842L88.4762 311.688V318.273C88.4762 323.692 88.6706 325.032 89.6422 326.023C91.3913 327.888 103.57 334.414 105.189 334.414C106.031 334.414 107.003 334.181 107.327 333.89C107.651 333.598 107.975 324.624 108.104 312.678L108.234 292.05L106.549 288.845C104.282 284.532 101.756 282.493 93.6585 278.239C89.9014 276.316 82.1927 272.178 76.557 269.148C66.905 263.904 65.9333 263.496 62.1762 263.321C58.5486 263.088 57.3017 264.079 56.5405 264.486ZM83.8122 288.961L88.4762 291.409V293.973V296.537L86.0794 295.255C84.7191 294.555 81.3506 292.749 78.6299 291.292L73.5772 288.67V286.106V283.542L76.3627 285.057C77.8526 285.873 81.221 287.621 83.8122 288.961Z" fill="black"/>
<path d="M323.622 294.905C315.978 298.868 307.492 303.413 304.836 304.986C299.265 308.191 296.285 311.688 295.184 316.233C294.342 319.846 294.277 349.332 295.119 352.654C295.897 355.684 297.775 357.024 301.273 357.024C303.605 357.024 305.548 356.208 314.294 351.43C319.994 348.341 326.925 344.612 329.776 343.213C340.464 337.794 341.76 336.337 341.76 329.578C341.76 325.557 340.982 323.808 339.168 323.808C338.456 323.808 332.755 326.547 326.537 329.927C320.253 333.307 315.006 336.046 314.812 336.046C314.682 336.046 314.553 335.288 314.553 334.298C314.553 332.899 315.006 332.375 317.014 331.442C320.124 329.985 335.217 322.002 337.031 320.837C339.104 319.555 339.816 317.34 339.816 312.503C339.816 309.065 339.557 308.075 338.585 307.259C337.096 306.035 337.614 305.86 324.269 312.97C319.152 315.708 314.877 317.981 314.747 317.981C314.617 317.981 314.553 317.34 314.553 316.524C314.553 314.951 314.099 315.242 325.565 309.24C341.76 300.791 341.241 301.257 341.63 294.264C341.954 289.019 341.371 287.679 338.909 287.679C338.132 287.679 331.266 290.942 323.622 294.905Z" fill="black"/>
<path d="M116.396 294.614C112.12 295.721 110.63 302.655 112.768 311.338C115.294 321.536 117.691 324.1 132.655 332.025C142.048 337.037 143.538 338.027 143.538 339.251C143.538 340.067 143.473 340.708 143.343 340.708C143.149 340.708 118.598 327.421 115.23 325.557C114.064 324.916 113.675 324.857 112.833 325.498C112.056 326.081 111.796 327.421 111.796 331.326C111.796 338.26 112.444 339.018 122.29 344.262C126.695 346.593 134.339 350.731 139.327 353.528C151.117 360.171 152.024 360.521 155.522 360.521C161.935 360.521 163.23 358.423 162.842 348.633C162.259 335.58 159.344 331.909 142.113 322.76C133.238 318.098 131.878 317.165 131.878 315.883V314.427L134.987 316.058C136.671 316.932 142.76 320.196 148.526 323.342C154.291 326.489 159.473 329.053 159.992 329.053C161.935 329.053 162.971 326.606 162.971 322.235C162.971 319.963 162.712 317.398 162.388 316.641C162 315.825 160.121 314.31 157.983 313.203C135.959 301.373 126.695 296.42 125.076 295.721C122.614 294.614 118.469 294.031 116.396 294.614Z" fill="black"/>
<path d="M173.417 321.553C172.202 320.898 166.563 317.62 166.563 321.974C166.563 326.327 166.632 334.899 166.563 342.296C166.489 350.238 166.174 361.905 166.562 362.838C167.405 364.761 166.984 365.518 173.526 368.956C180.587 372.686 180.976 372.744 182.53 371.579C183.632 370.763 183.891 369.772 184.02 366.043L184.215 361.556L191.535 365.402L198.79 369.248V375.833C198.79 381.252 200.867 381.75 201.838 382.74C203.587 384.605 214.227 389.514 214.227 389.514C214.227 389.514 216.17 390.607 216.899 389.514C217.628 388.422 217.575 382.286 217.575 370.267C217.575 370.267 217.576 350.717 217.575 349.726C217.575 348.735 217.628 348.432 217.628 345.372C217.628 342.313 211.394 339.963 206.454 337.943C203.782 336.85 198.938 334.228 198.923 336.631C198.908 339.035 198.79 348.969 198.79 348.969V354.097L183.891 346.23V341.102C183.891 341.102 184.18 327.957 183.619 327.453C183.059 326.949 174.631 322.209 173.417 321.553Z" fill="black"/>
<path d="M281.192 317.632C279.767 318.039 274.261 320.72 268.884 323.634C263.572 326.489 256.9 329.985 254.05 331.442C246.147 335.463 246.536 333.948 246.536 360.754C246.536 388.783 245.888 387.618 257.548 381.324C265.581 377.07 265.84 376.546 265.969 368.096V362.56L274.844 357.898C284.496 352.829 287.087 350.789 289.419 346.652C290.779 344.146 290.909 342.98 291.103 333.365C291.362 321.07 290.844 319.088 287.087 317.69C284.431 316.699 284.561 316.699 281.192 317.632ZM271.929 341.29C271.67 344.029 271.475 344.321 268.949 345.661C267.394 346.477 265.969 347.118 265.775 347.118C265.516 347.118 265.322 345.952 265.322 344.495C265.322 341.99 265.451 341.757 268.366 340.125C270.05 339.134 271.54 338.377 271.735 338.377C271.994 338.377 271.994 339.717 271.929 341.29Z" fill="black"/>
</svg>
